# xmcd
#
# Track frame offsets: 
#        150
#        13151
#        23127
#        34013
#        46778
#        58699
#        72157
#        83032
#        95309
#        108574
#        121038
#        132687
#        144635
#
# Disc length: 2093 seconds
#
# Revision: 0
# Processed by: cddbd v1.5.2PL0 Copyright (c) Steve Scherf et al.
# Submitted via: ExactAudioCopyFreeDBPlugin 1.0
#
DISCID=ac082b0d
DTITLE=Hank Williams - Jamalaya
DYEAR=1900
DGENRE=Country
TTITLE0=Jambalaya
TTITLE1=Honky tonk Blues
TTITLE2=Maonin' The Blues
TTITLE3=I Just Don't Like This Kind of Living
TTITLE4=Why Should We Try Any more
TTITLE5=You're Gonna change
TTITLE6=I Can't Help it
TTITLE7=Lost Highway
TTITLE8=Hey Good Lookin'
TTITLE9=Honky Tonkin'
TTITLE10=My Bucket's Got a Hole In It
TTITLE11=Long Gone Lonesome Blues
TTITLE12=Movw It On Over
EXTD=
EXTT0=
EXTT1=
EXTT2=
EXTT3=
EXTT4=
EXTT5=
EXTT6=
EXTT7=
EXTT8=
EXTT9=
EXTT10=
EXTT11=
EXTT12=
PLAYORDER=
